<?xml version="1.0" encoding="utf-8"?>
<svg viewBox="-588.1995 -788.7066 1776.5952 2154.29" width="1776.5952" height="2154.29" xmlns="http://www.w3.org/2000/svg">
  <defs>
    <linearGradient id="id2" gradientUnits="userSpaceOnUse" x1="1474.62" y1="1076.85" x2="3220.96" y2="1076.85">
      <stop offset="0" style="stop-opacity:1; stop-color:#1F1F1F"/>
      <stop offset="0.349" style="stop-opacity:1; stop-color:#212121"/>
      <stop offset="0.6" style="stop-opacity:1; stop-color:#212121"/>
      <stop offset="0.6784" style="stop-opacity:1; stop-color:#333333"/>
      <stop offset="0.702" style="stop-opacity:1; stop-color:#3B3A3A"/>
      <stop offset="0.7216" style="stop-opacity:1; stop-color:#3B3B3B"/>
      <stop offset="1" style="stop-opacity:1; stop-color:#212121"/>
    </linearGradient>
    <linearGradient id="id1" gradientUnits="userSpaceOnUse" x1="1459.4" y1="1077.14" x2="3236" y2="1077.14">
      <stop offset="0" style="stop-opacity:1; stop-color:#B8B8B8"/>
      <stop offset="0.349" style="stop-opacity:1; stop-color:#969696"/>
      <stop offset="0.6" style="stop-opacity:1; stop-color:#B3B3B3"/>
      <stop offset="0.6784" style="stop-opacity:1; stop-color:#9E9E9E"/>
      <stop offset="0.702" style="stop-opacity:1; stop-color:#B8B8B8"/>
      <stop offset="0.7216" style="stop-opacity:1; stop-color:#BDBDBD"/>
      <stop offset="1" style="stop-opacity:1; stop-color:#8A8A8A"/>
    </linearGradient>
  </defs>
  <g id="_2583737620416" transform="matrix(1, 0, 0, 1, -2047.5896224975584, -788.70654296875)">
    <path class="fil0" d="M3196.36 346.7c-122.19,0 -221.23,-99.04 -221.23,-221.22 0,-17.66 2.13,-34.8 6.04,-51.26 -531.76,-103.75 -1011.06,-49.49 -1278.98,0.46 3.84,16.32 5.94,33.3 5.94,50.8 0,122.18 -99.05,221.22 -221.23,221.22 -4.12,0 -8.22,-0.13 -12.29,-0.36 12.96,1570.93 865.82,1792.28 865.82,1792.28 838.46,-258.68 895.05,-1326.86 878.26,-1793.04 -7.35,0.73 -14.8,1.12 -22.34,1.12z" style="fill: url('#id2'); fill-rule: nonzero;"/>
    <path class="fil1" d="M2008.37 1935.12c13.76,-409.79 115.66,-1592.01 831.58,-1696.47 66.65,-9.72 119.2,-20.45 159.64,-31.95 -6.11,-20.25 -9.4,-41.72 -9.4,-63.96 0,-17.66 -0.93,-35.4 2.97,-51.85 -531.76,-103.75 -1005.25,-54.11 -1273.16,-4.15 3.84,16.31 3.18,38.51 3.18,56 -11.43,120.65 -102.11,201.8 -221.24,218.56 -4.13,0 -8.01,0.68 -12.07,0.45 2.72,330.05 42.41,602.18 103.58,823.54l40.82 132.05c102.15,296.53 243.54,491.37 374.1,617.78z" style="fill: rgb(219, 62, 74); fill-rule: nonzero;"/>
    <g>
      <path class="fil2" d="M2291.85 1283.2c-64.14,24.53 -81.73,91.48 -81.73,91.48 -29.73,-81.2 -1.07,-304.75 -1.07,-304.75 -27.58,125.83 -156.44,236.66 -156.44,236.66 44.48,-2.08 91.6,-21.43 91.6,-21.43 -38.91,86.32 -6.82,168.23 -6.82,168.23 -1.85,-36.68 20.66,-68.59 20.66,-68.59 -5.11,119.72 78.82,183.7 78.82,183.7 -46.19,-163.56 54.98,-285.3 54.98,-285.3z" style="fill: rgb(178, 179, 179); fill-rule: nonzero;"/>
      <path class="fil2" d="M2747.28 806.74c-23.95,-0.7 -12.45,-28.55 -40.47,-90.27 -8.2,-18.08 -27.93,-29.65 -44.79,-38.36 -41.75,-21.58 -88.67,-33.15 -134.26,-43.41 -16.43,-3.7 -33.11,-6.16 -49.55,-9.78 -29.14,-6.42 -45.09,-30.54 -59.32,-54.63 -25.97,-43.92 -42.99,-93.04 -56.76,-142.02 -7.51,-26.72 -14.88,-53.5 -20.4,-80.71 -27.85,-11.5 -85.23,167.93 -85.23,167.93 44.17,40.81 40.3,40.05 98.42,91.62 13.69,12.14 28.56,25.42 46.16,31.55 22.87,7.96 48.95,9.82 72.67,14.8 26.59,5.57 53.06,11.61 79.44,18.06 35.1,8.58 73.43,17.52 101.44,41.91 15.45,13.44 26.01,31.08 30.71,51.01 5.81,24.67 17.99,58.06 45.01,63.65 3.87,0.8 24.59,0.81 38.36,1.64 31.11,1.87 81.04,5.84 98.68,9.41 101.4,20.55 187.96,58.95 199.32,68.55 15.49,13.09 -8.33,52.56 12.51,48.63 20.85,-3.94 39.22,-56.53 32.98,-75.83 -6.24,-19.3 -340.95,-73.07 -364.92,-73.76z" style="fill: rgb(178, 179, 179); fill-rule: nonzero;"/>
      <path class="fil2" d="M2137.48 462.4c32.58,-10.33 65.62,58.33 78.15,79.07 19.3,31.93 43.66,81.61 40.63,119.13 -3.63,44.97 29.2,66.79 29.16,66.01 -1.27,-25.47 6.3,-35.81 13.49,-46.17 9.71,3.82 26.76,14.72 31.85,23.94 0,0 -4.57,-36.91 -10.45,-52.23 29.14,-3.44 69.88,41.98 69.3,40.4 -20.16,-56.39 -117.86,-129.79 -154.32,-178.13 -18.45,-24.47 -56.58,-93.26 -90,-94.9 -39.7,-1.96 -94.74,185.05 -99.27,234.76 -0.73,8.13 47.19,-177.85 91.45,-191.87z" style="fill: rgb(178, 179, 179); fill-rule: nonzero;"/>
      <path class="fil2" d="M1607.04 1186.58c111.85,-171.74 243.98,-93.71 243.98,-93.71 -2.88,-29.48 -57.48,-49.62 -57.48,-49.62 51.68,-23.81 106.9,18.86 106.9,18.86 -13.53,-56.17 -92.05,-75.95 -92.05,-75.95 88.8,-69.29 228.17,8.72 228.17,8.72 -1.21,-30.61 -93.23,-92.08 -93.23,-92.08 38.94,0.44 65.19,28.73 121.01,83.09 55.83,54.35 127.51,27.98 127.51,27.98 -43.39,0.14 -66.31,-30.4 -66.31,-30.4 24.5,7.72 54.55,-17.29 54.55,-17.29 -26.08,-4.23 -45.64,-29.77 -45.64,-29.77 39.14,5.14 45.44,-8.76 45.44,-8.76 -85.26,-37.01 -147.06,-217.87 -147.06,-217.87 13,154.12 -38.59,110.52 -144.29,118.64 -105.71,8.13 -177.38,-42.83 -177.38,-42.83 -5.2,79.34 110.8,102.02 110.8,102.02 -248.65,29.19 -277.57,205.67 -277.57,205.67 90.35,-106.58 168.97,-57.86 168.97,-57.86 -110.27,59.44 -106.35,151.15 -106.35,151.15z" style="fill: rgb(178, 179, 179); fill-rule: nonzero;"/>
      <path class="fil2" d="M2186.65 816.25c-12.08,-18.22 -13.36,-51.52 -13.36,-51.52 18.83,19.57 37.5,26.39 37.5,26.39 -7.81,-14.26 -12.99,-33.22 -12.99,-33.22 28.25,25 63.49,16.9 63.49,16.9 -46.29,-20.59 -71.75,-85.32 -71.75,-85.32 -5.99,22.63 2.89,41.23 2.89,41.23 -23.99,-8 -72.14,-97.32 -72.14,-97.32 -2.15,53.89 29.14,121.74 29.14,121.74 -22.69,-11.24 -35.68,-32.29 -35.68,-32.29 19.63,70.92 72.9,93.4 72.9,93.4z" style="fill: rgb(178, 179, 179); fill-rule: nonzero;"/>
      <polygon class="fil2" points="2933.55,929.26 2759.24,919.49 2925.12,969.18 2968.34,953.58 " style="fill: rgb(178, 179, 179); fill-rule: nonzero;"/>
      <polygon class="fil2" points="2989.45,1018.17 2993.56,991.15 2819.27,1083.89 " style="fill: rgb(178, 179, 179); fill-rule: nonzero;"/>
      <path class="fil2" d="M2491.66 788.77c0,0 38.69,83.07 67.54,100.61l-29.39 -74.22c0,0 19.36,-9.31 57.92,0.63 -0.39,0.24 -0.8,0.45 -1.19,0.71 -15.97,10.72 -20.21,32.35 -9.5,48.32 10.72,15.97 32.34,20.22 48.31,9.5 12.56,-8.43 17.83,-23.59 14.31,-37.45 7.24,3.89 14.81,8.32 22.75,13.41l11.21 -0.81c0,0 -50.17,-88.79 -181.98,-60.69z" style="fill: rgb(178, 179, 179); fill-rule: nonzero;"/>
      <path class="fil2" d="M2420.89 1055.03c-44.68,-4.17 -200.79,-62.28 -272.15,19.6 0,0 80.13,-46.25 195.08,-1.19 0,0 -15.36,22.5 -64.3,9.13 0,0 38.41,68.88 129.1,13.2 0,0 -26.13,30.07 -48.97,34.16 0,0 40.49,16.63 98.56,-36.71 0,0 4.78,19.13 -12.7,32.41 0,0 91.67,-18.98 139.5,-152.96 0,0 -119.47,86.55 -164.12,82.36z" style="fill: rgb(178, 179, 179); fill-rule: nonzero;"/>
      <path class="fil2" d="M1777.33 1213.77c32.1,-33.86 67.65,-60.46 135.41,-95.01l-1.27 -1.89c0,0 -164.82,8.33 -211.32,155.55 0,0 95.39,20.78 141.11,-24.96 0,0 -96.02,0.17 -63.93,-33.69z" style="fill: rgb(178, 179, 179); fill-rule: nonzero;"/>
      <path class="fil2" d="M2048 1287.3c-56.71,-129.25 74.81,-199.2 73.15,-198.77 0,0 -76.95,-34.91 -134.62,28.41 0,0 15.6,14.26 66.71,-0.39 -98.58,63.88 -5.25,170.74 -5.25,170.74z" style="fill: rgb(178, 179, 179); fill-rule: nonzero;"/>
      <path class="fil2" d="M2472.33 1127.51c0,0 234.39,-2.6 211.26,-240.97 0.37,4.81 9.9,152.2 -211.26,240.97z" style="fill: rgb(178, 179, 179); fill-rule: nonzero;"/>
      <path class="fil2" d="M2350.35 1161.79c0,0 -156.72,-101.5 -127.27,96.31 0,0 2.88,-108.1 127.27,-96.31z" style="fill: rgb(178, 179, 179); fill-rule: nonzero;"/>
      <path class="fil2" d="M2538.4 1135.24c-39.01,26.19 -151.52,63.47 -151.52,63.47 17.11,-7.91 15.84,-35.53 15.84,-35.53 -42.79,37.55 -102.23,42.96 -102.23,42.96 133.7,63.04 244.93,-75.61 237.91,-70.9z" style="fill: rgb(178, 179, 179); fill-rule: nonzero;"/>
      <path class="fil2" d="M2060.23 1438.56c-32.78,-10.71 -68.58,11.09 -75.02,17.21 -83,78.91 -82.11,181.79 -82.11,181.79 72.31,-125.77 138.76,-93.16 138.76,-93.16 -155.86,147.66 -120.47,318.26 -120.47,318.26 61.25,-285.19 307.2,-244.37 307.2,-244.37l-78.17 -105.77c-33.76,-45.68 -65.28,-65.83 -90.19,-73.97z" style="fill: rgb(178, 179, 179); fill-rule: nonzero;"/>
      <path class="fil2" d="M1943.93 1165.22c68.11,165.21 -19.5,153.38 -19.5,153.38 -12.23,-29.58 -5.07,-68.14 -5.07,-68.14 -154.55,171.48 -111.55,265.58 -111.55,265.58 12.05,-76.73 73.96,-128.39 73.96,-128.39 -128.44,214.82 -37.15,331.24 -37.15,331.24 -14.7,-279.43 221.61,-321.61 221.61,-321.61 -39.2,-8.35 -44.01,-29.78 -42.44,-44.03 0.87,-7.93 7.38,-26.71 7.93,-33.37 5.96,-73.68 -87.79,-154.65 -87.79,-154.65z" style="fill: rgb(178, 179, 179); fill-rule: nonzero;"/>
      <path class="fil2" d="M3005.97 1072.58c-20.31,45.51 -50.23,53.86 -50.23,53.86 18.54,-15.49 18,-44.38 18,-44.38 -36.02,36.77 -49.54,34.53 -49.54,34.53 10.38,-5.71 10.4,-17.89 10.4,-17.89 -0.02,7.24 -53.21,11.48 -58.2,11.96 -50.43,4.83 -101.56,4.64 -152.15,3.81 -59.33,-0.97 -104.82,19.22 -151.84,54.52 -97.63,73.3 -181.2,167.71 -248.05,269.87 -27.3,4.77 -5.84,-111.34 -5.84,-111.34 -94.34,104.76 -45.98,261.39 -45.98,261.39 140.51,-240.11 447.92,-438.65 447.92,-438.65l-83.47 4.43c48.44,-18.1 206.35,-25.73 206.35,-25.73l-34.69 23.29c50.43,3.89 90.45,-17.85 90.45,-17.85 8.68,5.6 -34.13,53.01 -34.13,53.01 51.59,5.63 94.37,-35.62 94.37,-35.62l-5.16 26.06c68.89,-21.08 99.87,-117.38 99.87,-117.38 -13.25,21.49 -46.95,44.58 -46.95,44.58 4.38,-11.12 -1.1,-32.45 -1.1,-32.45z" style="fill: rgb(178, 179, 179); fill-rule: nonzero;"/>
      <path class="fil2" d="M2299.69 1240.53c0,0 77.9,39.49 47.67,129.94 0,0 57.03,-53.97 30.7,-101.58 0,0 24.84,1.82 34.54,21.15 0,0 -9.87,-70.05 -112.91,-49.51z" style="fill: rgb(178, 179, 179); fill-rule: nonzero;"/>
    </g>
    <path class="fil3" d="M2340.78 2154.29l-4.15 -1.08c-8.9,-2.31 -220.29,-59.43 -435.73,-311.84 -197.63,-231.56 -434.64,-678.87 -441.37,-1494.9l-0.14 -16.08 16.05 0.9c3.79,0.21 7.61,0.33 11.45,0.33 113.67,0 206.15,-92.48 206.15,-206.14 0,-15.82 -1.86,-31.75 -5.53,-47.34l-3.63 -15.39 15.54 -2.9c146.43,-27.3 378.74,-59.85 653.92,-59.85 216.45,0 428.66,19.99 630.72,59.41l15.41 3 -3.64 15.28c-3.73,15.74 -5.62,31.81 -5.62,47.78 0,113.66 92.47,206.14 206.14,206.14 6.91,0 13.92,-0.36 20.83,-1.05l16 -1.6 0.58 16.06c16.43,456.09 -37.3,1545.27 -888.89,1807.99l-4.1 1.26zm-850.92 -1792.53l0 0c9.52,797.04 240.87,1233.75 434,1460.02 193.45,226.67 386.59,292.05 416.41,301.09 818.17,-255.97 878.22,-1304.15 863.86,-1761.22 -2.6,0.09 -5.19,0.13 -7.78,0.13 -130.31,0 -236.3,-106.01 -236.3,-236.3 0,-13.12 1.11,-26.29 3.31,-39.33 -195.68,-37.15 -400.83,-55.98 -610.02,-55.98 -263.62,0 -487.55,30.12 -633.35,56.58 2.15,12.85 3.22,25.82 3.22,38.73 0,129.31 -104.4,234.7 -233.35,236.28z" style="fill: url('#id1'); fill-rule: nonzero;"/>
  </g>
</svg>